<?xml version="1.0" encoding="UTF-8"?>
<svg id="Capa_1" data-name="Capa 1" xmlns="http://www.w3.org/2000/svg" viewBox="0 0 300 300">
  <defs>
    <style>
      .cls-1 {
        fill: #fcf8ea;
      }
    </style>
  </defs>
  <path class="cls-1" d="M73.82,134.88v-.56s-6.52,0-6.52,0v28.12h6.51v-13.34c0-1.92.32-3.54.96-4.86.64-1.32,1.6-2.33,2.88-3.04,2.48-1.38,6.4-.43,6.4-.43v-6.46c-.92.21-6.39-.64-8.95,1.25-.54.4-1.3-.02-1.29-.69Z"/>
  <rect class="cls-1" x="87.65" y="134.31" width="6.51" height="28.12"/>
  <path class="cls-1" d="M118.48,135.22c0,.69-.79,1.07-1.34.66-.29-.21-.6-.41-.93-.58-.91-.48-1.87-.84-2.88-1.07-1.01-.23-2.05-.35-3.12-.35-2.88,0-5.28.63-7.2,1.89-1.92,1.26-3.36,2.99-4.32,5.18-.96,2.19-1.44,4.67-1.44,7.44s.45,5.09,1.36,7.26c.91,2.17,2.29,3.9,4.14,5.2,1.85,1.3,4.2,1.95,7.04,1.95,1.17,0,2.31-.14,3.42-.43,1.1-.28,2.11-.71,3.02-1.28.37-.23.73-.49,1.06-.78.53-.46,1.35-.1,1.38.6l.05,1.52h6.3v-37.73h-6.51v10.52ZM111.01,156.94c-1.84,0-7.31-.94-7.31-8.43,0-4.83,2.64-8.75,7.31-8.75,6.86,0,7.52,6.66,7.52,8.54,0,1.54-.55,8.65-7.52,8.65Z"/>
  <path class="cls-1" d="M42.99,124.7h-6.51s0,37.73,0,37.73h6.3s.05-1.52.05-1.52c.02-.7.84-1.06,1.38-.6.33.29.69.55,1.06.78.91.57,1.91,1,3.02,1.28,1.1.28,2.24.43,3.42.43,2.85,0,5.19-.65,7.04-1.95,1.85-1.3,3.23-3.03,4.14-5.2.91-2.17,1.36-4.59,1.36-7.26,0-2.78-.48-5.26-1.44-7.44-.96-2.19-2.4-3.91-4.32-5.18-1.92-1.26-4.32-1.89-7.2-1.89-1.07,0-2.11.12-3.12.35-1.01.23-1.97.59-2.88,1.07-.33.17-.64.37-.93.58-.56.41-1.34.04-1.34-.66v-10.52ZM42.93,148.29c0-1.64.4-8.54,7.52-8.54,7.02,0,7.31,6.9,7.31,8.75,0,1.25.02,8.43-7.31,8.43-6.78,0-7.52-6.81-7.52-8.65Z"/>
  <path class="cls-1" d="M172.74,133.88c-4.44,0-13.69,2.16-13.69,14.54,0,3,.79,14.33,13.64,14.33,9.53,0,11.62-6.26,12.17-8.68h-6.5c-.63,2.1-3.04,3.14-5.67,3.14-5.91,0-6.84-4.91-7-5.77-.1-.51.3-.99.82-.99h18.75c.08-.51,2.09-16.57-12.52-16.57ZM166.61,145.6c-.52,0-.93-.47-.82-.98.15-.71.41-1.4.77-2.06.53-.96,1.3-1.74,2.29-2.34.99-.6,2.24-.91,3.73-.91,1.39,0,2.57.28,3.54.83.98.55,1.73,1.31,2.26,2.26.53.96.8,2.02.8,3.2h-12.57Z"/>
  <g>
    <path class="cls-1" d="M133.7,160.83c1.83,1.28,4.21,1.92,7.12,1.92,1.07,0,2.14-.12,3.23-.35,1.08-.23,2.12-.65,3.1-1.25.37-.23.72-.49,1.05-.79.53-.48,1.38-.1,1.38.62v.38c0,.36-.01.72-.04,1.07h6.5c.07-.79.1-1.6.1-2.45v-25.67h-6.03l-.2,1.45c-.09.65-.86.94-1.37.51-.76-.63-1.61-1.13-2.57-1.51-1.48-.59-3.05-.88-4.72-.88-2.88,0-5.27.66-7.18,1.97-1.9,1.32-3.33,3.09-4.27,5.31-.94,2.22-1.41,4.69-1.41,7.39s.43,4.97,1.28,7.12c.85,2.15,2.2,3.87,4.03,5.15ZM142.21,139.75c6.59,0,7.47,6.18,7.47,8.49,0,1.57-.58,8.75-7.52,8.75-6.59,0-7.31-6.88-7.31-8.54,0-6.37,4.12-8.7,7.36-8.7Z"/>
    <path class="cls-1" d="M148.79,165.78c-.44,1.05-1.11,1.89-2.01,2.53-1.01.71-2.39,1.07-4.14,1.07-.93,0-1.82-.12-2.69-.35-.87-.23-1.63-.61-2.27-1.15-.64-.53-1.07-1.23-1.28-2.08h-6.67c.43,2.21,1.25,4.01,2.48,5.42,1.23,1.41,2.74,2.44,4.54,3.1,1.8.66,3.73.99,5.79.99,3.27,0,5.91-.61,7.9-1.84,1.99-1.23,3.44-2.99,4.35-5.28.3-.75.54-1.55.74-2.39h-6.73Z"/>
  </g>
  <g>
    <path class="cls-1" d="M256.17,165.78c-.44,1.05-1.11,1.89-2.01,2.53-1.01.71-2.39,1.07-4.14,1.07-.93,0-1.82-.12-2.69-.35-.87-.23-1.63-.61-2.27-1.15-.64-.53-1.07-1.23-1.28-2.08h-6.67c.43,2.21,1.25,4.01,2.48,5.42,1.23,1.41,2.74,2.44,4.54,3.1,1.8.66,3.73.99,5.79.99,3.27,0,5.91-.61,7.9-1.84,1.99-1.23,3.44-2.99,4.35-5.28.3-.75.54-1.55.74-2.39h-6.73Z"/>
    <path class="cls-1" d="M241.08,160.83c1.83,1.28,4.21,1.92,7.12,1.92,1.07,0,2.14-.12,3.23-.35,1.08-.23,2.12-.65,3.1-1.25.37-.23.72-.49,1.05-.79.53-.48,1.38-.1,1.38.62v.38c0,.36-.01.72-.04,1.07h6.5c.07-.79.1-1.6.1-2.45v-25.67h-6.03l-.2,1.45c-.09.65-.86.94-1.37.51-.76-.63-1.61-1.13-2.57-1.51-1.48-.59-3.05-.88-4.72-.88-2.88,0-5.27.66-7.18,1.97-1.9,1.32-3.33,3.09-4.27,5.31-.94,2.22-1.41,4.69-1.41,7.39s.43,4.97,1.28,7.12c.85,2.15,2.2,3.87,4.03,5.15ZM249.6,139.75c6.59,0,7.47,6.18,7.47,8.49,0,1.58-.59,8.75-7.52,8.75s-7.31-6.88-7.31-8.54c0-1.5.19-8.7,7.36-8.7Z"/>
  </g>
  <path class="cls-1" d="M201.37,133.47c-10.1,0-13.26,8.86-13.29,14.43v14.53h6.61v-11.13c0-.46.37-.82.82-.82h11.79c.46,0,.82.37.82.82v11.13h6.48v-14.55c-.03-5.55-3.15-14.41-13.25-14.41ZM208.13,145.54h-12.6c-.55,0-.94-.45-.82-.98.15-.71.41-1.4.77-2.06.53-.96,1.3-1.74,2.29-2.35,1-.6,2.24-.91,3.74-.91,1.39,0,2.57.28,3.55.83.98.55,1.73,1.31,2.27,2.27.53.96.8,2.03.8,3.2Z"/>
  <path class="cls-1" d="M224.57,134.88v-.56s-6.52,0-6.52,0v28.12h6.51v-13.34c0-1.92.32-3.54.96-4.86.64-1.32,1.6-2.33,2.88-3.04,2.48-1.38,6.4-.43,6.4-.43v-6.46c-.92.21-6.39-.64-8.95,1.25-.54.4-1.3-.02-1.29-.69Z"/>
</svg>