<?xml version="1.0" encoding="UTF-8"?>
<svg id="Capa_1" data-name="Capa 1" xmlns="http://www.w3.org/2000/svg" viewBox="0 0 300 132">
  <defs>
    <style>
      .cls-1 {
        fill: #1e1517;
      }
    </style>
  </defs>
  <g>
    <path class="cls-1" d="M195.04,63.01l1.92-5.15h.91l1.91,5.15h-.68l-.41-1.11h-2.55l-.41,1.11h-.68ZM196.34,61.32h2.13l-1.06-2.91-1.06,2.91Z"/>
    <path class="cls-1" d="M200.48,63.01v-5.15h.96l1.54,2.83,1.52-2.83h.94v5.15h-.63v-4.48l-1.7,3.13h-.29l-1.71-3.13v4.48h-.63Z"/>
    <path class="cls-1" d="M206.71,63.01v-5.15h1.81c.26,0,.49.02.7.06s.39.11.54.21c.15.1.27.23.35.39.08.16.12.37.12.63s-.06.5-.18.7c-.12.2-.3.35-.55.45.33.06.58.19.74.4.16.21.25.49.25.84,0,.29-.05.52-.16.71s-.25.34-.44.45c-.19.11-.4.19-.64.23-.24.05-.5.07-.77.07h-1.77ZM207.34,60.11h.99c.18,0,.35-.02.5-.05s.29-.08.41-.16.21-.17.27-.28.1-.26.1-.44c0-.22-.04-.39-.15-.5-.1-.11-.24-.18-.4-.21s-.35-.05-.54-.05h-1.18v1.68ZM207.34,62.43h1.11c.15,0,.31,0,.47-.03.16-.02.31-.05.46-.11.14-.06.25-.14.34-.27.09-.12.13-.28.13-.49,0-.17-.03-.32-.1-.43-.07-.11-.15-.2-.26-.26s-.23-.11-.38-.13-.28-.04-.43-.04h-1.35v1.75Z"/>
    <path class="cls-1" d="M210.92,63.01l1.92-5.15h.91l1.91,5.15h-.68l-.41-1.11h-2.55l-.41,1.11h-.68ZM212.23,61.32h2.13l-1.06-2.91-1.06,2.91Z"/>
    <path class="cls-1" d="M218.11,63.06c-.33,0-.63-.05-.92-.13-.29-.09-.54-.24-.74-.44-.2-.21-.34-.48-.42-.83h.66c.07.22.18.39.33.51.15.12.33.21.53.25.2.05.4.07.6.07s.38-.03.56-.08c.17-.06.31-.15.42-.27.11-.13.16-.29.16-.49,0-.16-.03-.28-.08-.38-.06-.1-.13-.18-.23-.24-.1-.06-.22-.11-.35-.15-.18-.06-.37-.11-.58-.15-.2-.04-.4-.08-.6-.14-.2-.05-.38-.12-.55-.2-.09-.05-.18-.11-.27-.18s-.16-.15-.22-.25-.11-.2-.15-.32c-.04-.12-.05-.25-.05-.4,0-.22.03-.41.1-.57.07-.16.16-.3.28-.41.12-.11.25-.2.41-.27.16-.07.32-.12.5-.15s.36-.05.54-.05c.3,0,.57.05.83.13.26.09.48.23.65.43s.27.47.28.81h-.62c-.02-.2-.09-.36-.2-.48-.11-.12-.25-.2-.42-.25-.16-.05-.34-.07-.52-.07-.14,0-.27.01-.41.04-.14.02-.26.07-.38.13-.11.06-.21.14-.27.25-.07.1-.1.24-.1.4,0,.13.02.24.07.34.05.1.11.18.19.24s.17.12.27.16c.23.1.49.17.78.21.28.05.55.11.8.2.15.05.28.11.4.18.12.07.22.16.31.25.08.1.15.21.2.33.05.12.07.26.07.42,0,.28-.05.52-.15.72-.1.2-.23.36-.4.48-.17.12-.37.21-.59.26s-.46.08-.7.08Z"/>
    <path class="cls-1" d="M222.9,63.06c-.33,0-.63-.05-.92-.13-.29-.09-.54-.24-.74-.44-.2-.21-.34-.48-.42-.83h.66c.07.22.18.39.33.51.15.12.33.21.53.25.2.05.4.07.6.07s.38-.03.56-.08c.17-.06.31-.15.42-.27.11-.13.16-.29.16-.49,0-.16-.03-.28-.08-.38-.06-.1-.13-.18-.23-.24-.1-.06-.22-.11-.35-.15-.18-.06-.37-.11-.58-.15-.2-.04-.4-.08-.6-.14-.2-.05-.38-.12-.55-.2-.09-.05-.18-.11-.27-.18s-.16-.15-.22-.25-.11-.2-.15-.32c-.04-.12-.05-.25-.05-.4,0-.22.03-.41.1-.57.07-.16.16-.3.28-.41.12-.11.25-.2.41-.27.16-.07.32-.12.5-.15s.36-.05.54-.05c.3,0,.57.05.83.13.26.09.48.23.65.43s.27.47.28.81h-.62c-.02-.2-.09-.36-.2-.48-.11-.12-.25-.2-.42-.25-.16-.05-.34-.07-.52-.07-.14,0-.27.01-.41.04-.14.02-.26.07-.38.13-.11.06-.21.14-.27.25-.07.1-.1.24-.1.4,0,.13.02.24.07.34.05.1.11.18.19.24s.17.12.27.16c.23.1.49.17.78.21.28.05.55.11.8.2.15.05.28.11.4.18.12.07.22.16.31.25.08.1.15.21.2.33.05.12.07.26.07.42,0,.28-.05.52-.15.72-.1.2-.23.36-.4.48-.17.12-.37.21-.59.26s-.46.08-.7.08Z"/>
    <path class="cls-1" d="M225.12,63.01l1.92-5.15h.91l1.91,5.15h-.68l-.41-1.11h-2.55l-.41,1.11h-.68ZM226.42,61.32h2.13l-1.06-2.91-1.06,2.91Z"/>
    <path class="cls-1" d="M230.56,63.01v-5.15h1.83c.53,0,.98.11,1.34.32.36.22.63.52.81.9.18.39.27.84.27,1.35s-.09.96-.27,1.34c-.18.39-.45.69-.81.9-.36.22-.81.32-1.35.32h-1.83ZM231.2,62.43h1.15c.42,0,.76-.08,1.03-.26.27-.17.47-.4.6-.7.13-.3.2-.64.2-1.04s-.06-.73-.19-1.03c-.13-.3-.32-.54-.59-.71-.26-.17-.6-.26-1.01-.26h-1.19v4Z"/>
    <path class="cls-1" d="M238.06,63.06c-.53,0-.98-.11-1.34-.34-.36-.23-.63-.54-.81-.94-.18-.4-.27-.85-.27-1.35s.09-.96.27-1.35c.18-.4.45-.71.81-.94.36-.23.81-.34,1.34-.34s.98.11,1.34.34.63.54.81.94c.18.4.27.85.27,1.35s-.09.95-.27,1.35c-.18.4-.45.71-.81.94-.36.23-.8.34-1.34.34ZM238.06,62.49c.41,0,.74-.09,1.01-.28.26-.19.46-.44.58-.75.12-.31.19-.65.19-1.03,0-.28-.04-.55-.11-.8-.07-.25-.18-.47-.32-.66-.15-.19-.33-.34-.55-.44s-.49-.16-.79-.16c-.4,0-.74.09-1,.28-.26.19-.46.44-.59.75s-.19.65-.19,1.03.06.71.19,1.02c.13.31.32.56.59.75s.6.28,1.01.28Z"/>
    <path class="cls-1" d="M241.46,63.01v-5.15h1.93c.29,0,.54.03.77.09.23.06.42.15.58.28.16.13.28.29.37.5.08.21.13.46.13.75s-.05.53-.16.73c-.11.2-.25.37-.42.49-.17.13-.36.22-.57.28l1.08,2.04h-.69l-1.03-1.93h-1.35v1.93h-.63ZM242.09,60.5h1.09c.19,0,.37-.01.54-.04s.32-.08.44-.16c.13-.08.23-.18.3-.32.07-.14.11-.32.12-.54,0-.25-.04-.45-.14-.59s-.24-.25-.43-.32c-.19-.07-.42-.1-.69-.1h-1.23v2.07Z"/>
    <path class="cls-1" d="M248.11,63.06c-.33,0-.63-.05-.92-.13-.29-.09-.54-.24-.74-.44-.2-.21-.34-.48-.42-.83h.66c.07.22.18.39.33.51.15.12.33.21.53.25.2.05.4.07.6.07s.38-.03.56-.08c.17-.06.31-.15.42-.27.11-.13.16-.29.16-.49,0-.16-.03-.28-.08-.38-.06-.1-.13-.18-.23-.24-.1-.06-.22-.11-.35-.15-.18-.06-.37-.11-.58-.15-.2-.04-.4-.08-.6-.14-.2-.05-.38-.12-.55-.2-.09-.05-.18-.11-.27-.18s-.16-.15-.22-.25-.11-.2-.15-.32c-.04-.12-.05-.25-.05-.4,0-.22.03-.41.1-.57.07-.16.16-.3.28-.41.12-.11.25-.2.41-.27.16-.07.32-.12.5-.15s.36-.05.54-.05c.3,0,.57.05.83.13.26.09.48.23.65.43s.27.47.28.81h-.62c-.02-.2-.09-.36-.2-.48-.11-.12-.25-.2-.42-.25-.16-.05-.34-.07-.52-.07-.14,0-.27.01-.41.04-.14.02-.26.07-.38.13-.11.06-.21.14-.27.25-.07.1-.1.24-.1.4,0,.13.02.24.07.34.05.1.11.18.19.24s.17.12.27.16c.23.1.49.17.78.21.28.05.55.11.8.2.15.05.28.11.4.18.12.07.22.16.31.25.08.1.15.21.2.33.05.12.07.26.07.42,0,.28-.05.52-.15.72-.1.2-.23.36-.4.48-.17.12-.37.21-.59.26s-.46.08-.7.08Z"/>
    <path class="cls-1" d="M255.11,63.06c-.53,0-.98-.11-1.34-.34-.36-.23-.63-.54-.81-.94-.18-.4-.27-.85-.27-1.35s.09-.96.27-1.35c.18-.4.45-.71.81-.94.36-.23.81-.34,1.34-.34s.98.11,1.34.34.63.54.81.94c.18.4.27.85.27,1.35s-.09.95-.27,1.35c-.18.4-.45.71-.81.94-.36.23-.8.34-1.34.34ZM255.11,62.49c.41,0,.74-.09,1.01-.28.26-.19.46-.44.58-.75.12-.31.19-.65.19-1.03,0-.28-.04-.55-.11-.8-.07-.25-.18-.47-.32-.66-.15-.19-.33-.34-.55-.44s-.49-.16-.79-.16c-.4,0-.74.09-1,.28-.26.19-.46.44-.59.75s-.19.65-.19,1.03.06.71.19,1.02c.13.31.32.56.59.75s.6.28,1.01.28Z"/>
    <path class="cls-1" d="M258.51,63.01v-5.15h3.46v.58h-2.83v1.93h2.47v.58h-2.47v2.06h-.63Z"/>
    <path class="cls-1" d="M195.04,70.92l1.92-5.15h.91l1.91,5.15h-.68l-.41-1.11h-2.55l-.41,1.11h-.68ZM196.34,69.23h2.13l-1.06-2.91-1.06,2.91Z"/>
    <path class="cls-1" d="M200.48,70.92v-5.15h1.93c.29,0,.54.03.77.09.23.06.42.15.58.28.16.13.28.29.37.5.08.21.13.46.13.75s-.05.53-.16.73c-.11.2-.25.37-.42.49-.17.13-.36.22-.57.28l1.08,2.04h-.69l-1.03-1.93h-1.35v1.93h-.63ZM201.11,68.41h1.09c.19,0,.37-.01.54-.04s.32-.08.44-.16c.13-.08.23-.18.3-.32.07-.14.11-.32.12-.54,0-.25-.04-.45-.14-.59s-.24-.25-.43-.32c-.19-.07-.42-.1-.69-.1h-1.23v2.07Z"/>
    <path class="cls-1" d="M207.36,70.97c-.53,0-.98-.11-1.33-.34-.35-.23-.61-.54-.79-.93-.17-.39-.26-.84-.26-1.35,0-.38.05-.73.14-1.05.09-.32.24-.6.43-.84.19-.24.44-.43.73-.56.29-.13.64-.2,1.04-.2s.71.06.99.17c.28.12.51.28.7.49.18.21.31.46.38.74h-.69c-.05-.17-.14-.32-.26-.44-.13-.12-.28-.22-.47-.29-.19-.07-.41-.1-.65-.1-.3,0-.56.05-.77.16s-.39.25-.52.44c-.14.19-.24.41-.3.66s-.09.52-.09.8c0,.38.06.72.18,1.03.12.31.31.56.56.74.25.18.58.28.98.28.33,0,.61-.06.85-.18.23-.12.41-.29.54-.52.13-.23.19-.5.19-.81h-1.69v-.58h2.29v.43c0,.45-.09.84-.26,1.17-.17.33-.42.59-.75.78-.32.18-.71.28-1.16.28Z"/>
    <path class="cls-1" d="M210.52,70.92v-5.15h3.46v.58h-2.83v1.73h2.54v.58h-2.54v1.68h2.83v.58h-3.46Z"/>
    <path class="cls-1" d="M214.96,70.92v-5.15h.81l2.69,4.29v-4.29h.63v5.15h-.79l-2.7-4.28v4.28h-.63Z"/>
    <path class="cls-1" d="M221.48,70.92v-4.57h-1.65v-.58h3.94v.58h-1.65v4.57h-.63Z"/>
    <path class="cls-1" d="M224.5,70.92v-5.15h.63v5.15h-.63Z"/>
    <path class="cls-1" d="M226.4,70.92v-5.15h.81l2.69,4.29v-4.29h.63v5.15h-.79l-2.7-4.28v4.28h-.63Z"/>
    <path class="cls-1" d="M231.8,70.92v-5.15h3.46v.58h-2.83v1.73h2.54v.58h-2.54v1.68h2.83v.58h-3.46Z"/>
    <path class="cls-1" d="M237.65,70.92l1.92-5.15h.91l1.91,5.15h-.68l-.41-1.11h-2.55l-.41,1.11h-.68ZM238.95,69.23h2.13l-1.06-2.91-1.06,2.91Z"/>
    <path class="cls-1" d="M243.09,70.92v-5.15h1.93c.29,0,.54.03.77.09.23.06.42.15.58.28.16.13.28.29.37.5.08.21.13.46.13.75s-.05.53-.16.73c-.11.2-.25.37-.42.49-.17.13-.36.22-.57.28l1.08,2.04h-.69l-1.03-1.93h-1.35v1.93h-.63ZM243.73,68.41h1.09c.19,0,.37-.01.54-.04s.32-.08.44-.16c.13-.08.23-.18.3-.32.07-.14.11-.32.12-.54,0-.25-.04-.45-.14-.59s-.24-.25-.43-.32c-.19-.07-.42-.1-.69-.1h-1.23v2.07Z"/>
    <path class="cls-1" d="M249.01,70.92v-4.57h-1.65v-.58h3.94v.58h-1.65v4.57h-.63Z"/>
  </g>
  <path class="cls-1" d="M63.12,55.84v-.38s-4.38,0-4.38,0v18.9h4.37v-8.96c0-1.29.22-2.38.65-3.26.43-.88,1.08-1.57,1.94-2.04,1.66-.93,4.3-.29,4.3-.29v-4.34c-.62.14-4.3-.43-6.01.84-.36.27-.87-.01-.87-.46Z"/>
  <rect class="cls-1" x="72.42" y="55.46" width="4.37" height="18.9"/>
  <path class="cls-1" d="M93.13,56.07c0,.47-.53.72-.9.44-.19-.14-.4-.27-.62-.39-.61-.32-1.26-.56-1.94-.72-.68-.16-1.38-.23-2.1-.23-1.94,0-3.55.42-4.84,1.27-1.29.85-2.26,2.01-2.9,3.48-.65,1.47-.97,3.14-.97,5s.3,3.42.91,4.88c.61,1.46,1.54,2.62,2.78,3.5,1.24.87,2.82,1.31,4.73,1.31.79,0,1.55-.1,2.3-.29.74-.19,1.42-.48,2.03-.86.25-.16.49-.33.71-.53.36-.31.91-.07.92.4l.03,1.02h4.23v-25.35h-4.37v7.07ZM88.11,70.66c-1.23,0-4.91-.63-4.91-5.67,0-3.24,1.77-5.88,4.91-5.88,4.61,0,5.06,4.47,5.06,5.74,0,1.03-.37,5.81-5.06,5.81Z"/>
  <path class="cls-1" d="M42.4,49h-4.37s0,25.35,0,25.35h4.23s.03-1.02.03-1.02c.01-.47.57-.71.92-.4.22.19.46.37.71.53.61.38,1.29.67,2.03.86.74.19,1.51.29,2.3.29,1.91,0,3.49-.44,4.73-1.31,1.24-.87,2.17-2.04,2.78-3.5.61-1.46.91-3.08.91-4.88,0-1.86-.32-3.53-.97-5-.65-1.47-1.61-2.63-2.9-3.48-1.29-.85-2.9-1.27-4.84-1.27-.72,0-1.42.08-2.1.23-.68.16-1.33.39-1.94.72-.22.12-.43.25-.62.39-.37.28-.9.02-.9-.44v-7.07ZM42.36,64.85c0-1.1.27-5.74,5.06-5.74,4.71,0,4.91,4.64,4.91,5.88,0,.84.01,5.67-4.91,5.67-4.56,0-5.06-4.57-5.06-5.81Z"/>
  <path class="cls-1" d="M129.59,55.17c-2.98,0-9.2,1.45-9.2,9.77,0,2.01.53,9.63,9.16,9.63,6.4,0,7.81-4.21,8.18-5.83h-4.37c-.42,1.41-2.04,2.11-3.81,2.11-3.97,0-4.59-3.3-4.7-3.88-.07-.35.2-.67.55-.67h12.6c.05-.34,1.41-11.13-8.41-11.13ZM125.47,63.04c-.35,0-.62-.32-.55-.66.1-.48.27-.94.52-1.38.36-.64.87-1.17,1.54-1.57.67-.41,1.5-.61,2.51-.61.93,0,1.72.19,2.38.55.66.37,1.16.88,1.52,1.52.36.64.54,1.36.54,2.15h-8.45Z"/>
  <path class="cls-1" d="M103.36,73.28c1.23.86,2.83,1.29,4.79,1.29.72,0,1.44-.08,2.17-.23.73-.16,1.42-.44,2.08-.84.25-.15.49-.33.7-.53.36-.32.93-.06.93.42v.25c0,.24,0,.48-.03.72h4.37c.04-.53.07-1.08.07-1.65v-17.25h-4.05l-.13.97c-.06.44-.58.63-.92.35-.51-.42-1.08-.76-1.73-1.02-.99-.39-2.05-.59-3.17-.59-1.94,0-3.54.44-4.82,1.33-1.28.88-2.24,2.07-2.87,3.57-.63,1.49-.95,3.15-.95,4.97s.29,3.34.86,4.79c.57,1.45,1.48,2.6,2.71,3.46ZM109.08,59.11c4.43,0,5.02,4.15,5.02,5.7,0,1.05-.39,5.88-5.06,5.88-4.43,0-4.91-4.62-4.91-5.74,0-4.28,2.77-5.85,4.95-5.85Z"/>
  <path class="cls-1" d="M113.5,76.6c-.29.7-.74,1.27-1.35,1.7-.68.48-1.61.72-2.78.72-.62,0-1.23-.08-1.81-.23-.59-.16-1.09-.41-1.52-.77-.43-.36-.72-.82-.86-1.4h-4.48c.29,1.48.84,2.69,1.67,3.64.82.94,1.84,1.64,3.05,2.08,1.21.44,2.5.66,3.89.66,2.2,0,3.97-.41,5.31-1.24,1.34-.82,2.31-2.01,2.92-3.55.2-.5.36-1.04.5-1.61h-4.52Z"/>
  <path class="cls-1" d="M185.65,76.6c-.29.7-.74,1.27-1.35,1.7-.68.48-1.61.72-2.78.72-.62,0-1.23-.08-1.81-.23-.59-.16-1.09-.41-1.52-.77-.43-.36-.72-.82-.86-1.4h-4.48c.29,1.48.84,2.69,1.67,3.64.82.94,1.84,1.64,3.05,2.08,1.21.44,2.5.66,3.89.66,2.2,0,3.97-.41,5.31-1.24,1.34-.82,2.31-2.01,2.92-3.55.2-.5.36-1.04.5-1.61h-4.52Z"/>
  <path class="cls-1" d="M175.51,73.28c1.23.86,2.83,1.29,4.79,1.29.72,0,1.44-.08,2.17-.23.73-.16,1.42-.44,2.08-.84.25-.15.49-.33.7-.53.36-.32.93-.06.93.42v.25c0,.24,0,.48-.03.72h4.37c.04-.53.07-1.08.07-1.65v-17.25h-4.05l-.13.97c-.06.44-.58.63-.92.35-.51-.42-1.08-.76-1.73-1.02-.99-.39-2.05-.59-3.17-.59-1.94,0-3.54.44-4.82,1.33-1.28.88-2.24,2.07-2.87,3.57-.63,1.49-.95,3.15-.95,4.97s.29,3.34.86,4.79c.57,1.45,1.48,2.6,2.71,3.46ZM181.23,59.11c4.43,0,5.02,4.15,5.02,5.7,0,1.06-.4,5.88-5.06,5.88s-4.91-4.62-4.91-5.74c0-1.01.13-5.85,4.95-5.85Z"/>
  <path class="cls-1" d="M148.83,54.9c-6.79,0-8.91,5.95-8.93,9.69v9.77h4.44v-7.48c0-.31.25-.55.55-.55h7.92c.31,0,.55.25.55.55v7.48h4.36v-9.78c-.02-3.73-2.12-9.68-8.9-9.68ZM153.37,63.01h-8.46c-.37,0-.63-.3-.55-.66.1-.48.27-.94.52-1.38.36-.65.87-1.17,1.54-1.58.67-.41,1.51-.61,2.51-.61.93,0,1.73.19,2.38.56.66.37,1.17.88,1.52,1.52.36.65.54,1.36.54,2.15Z"/>
  <path class="cls-1" d="M164.42,55.84v-.38s-4.38,0-4.38,0v18.9h4.37v-8.96c0-1.29.22-2.38.65-3.26.43-.88,1.08-1.57,1.94-2.04,1.66-.93,4.3-.29,4.3-.29v-4.34c-.62.14-4.3-.43-6.01.84-.36.27-.87-.01-.87-.46Z"/>
</svg>