<?xml version="1.0" encoding="UTF-8"?>
<svg id="Capa_1" data-name="Capa 1" xmlns="http://www.w3.org/2000/svg" viewBox="0 0 300 300">
  <defs>
    <style>
      .cls-1 {
        fill: #fcf8ea;
      }
    </style>
  </defs>
  <g>
    <path class="cls-1" d="M116.99,209v-.24s-2.79,0-2.79,0v12.05h2.79v-5.72c0-.82.14-1.52.41-2.08.27-.56.69-1,1.23-1.3,1.06-.59,2.74-.18,2.74-.18v-2.77c-.39.09-2.74-.27-3.83.54-.23.17-.56,0-.55-.29Z"/>
    <rect class="cls-1" x="122.92" y="208.76" width="2.79" height="12.05"/>
    <path class="cls-1" d="M136.12,209.15c0,.3-.34.46-.57.28-.12-.09-.26-.17-.4-.25-.39-.21-.8-.36-1.23-.46-.43-.1-.88-.15-1.34-.15-1.23,0-2.26.27-3.09.81-.82.54-1.44,1.28-1.85,2.22-.41.94-.62,2-.62,3.19s.19,2.18.58,3.11c.39.93.98,1.67,1.77,2.23.79.56,1.8.83,3.02.83.5,0,.99-.06,1.46-.18.47-.12.9-.3,1.29-.55.16-.1.31-.21.45-.34.23-.2.58-.04.59.26l.02.65h2.7v-16.16h-2.79v4.51ZM132.92,218.45c-.79,0-3.13-.4-3.13-3.61,0-2.07,1.13-3.75,3.13-3.75,2.94,0,3.22,2.85,3.22,3.66,0,.66-.23,3.7-3.22,3.7Z"/>
    <path class="cls-1" d="M103.78,204.64h-2.79s0,16.16,0,16.16h2.7s.02-.65.02-.65c0-.3.36-.45.59-.26.14.12.29.24.45.34.39.24.82.43,1.29.55.47.12.96.18,1.46.18,1.22,0,2.23-.28,3.02-.83.79-.56,1.38-1.3,1.77-2.23.39-.93.58-1.97.58-3.11,0-1.19-.21-2.25-.62-3.19-.41-.94-1.03-1.68-1.85-2.22-.82-.54-1.85-.81-3.09-.81-.46,0-.9.05-1.34.15-.43.1-.85.25-1.23.46-.14.07-.27.16-.4.25-.24.18-.57.02-.57-.28v-4.51ZM103.76,214.75c0-.7.17-3.66,3.22-3.66,3.01,0,3.13,2.96,3.13,3.75,0,.54,0,3.61-3.13,3.61-2.91,0-3.22-2.92-3.22-3.7Z"/>
    <path class="cls-1" d="M159.36,208.57c-1.9,0-5.86.93-5.86,6.23,0,1.28.34,6.14,5.84,6.14,4.08,0,4.98-2.68,5.21-3.72h-2.78c-.27.9-1.3,1.35-2.43,1.35-2.53,0-2.93-2.1-3-2.47-.04-.22.13-.43.35-.43h8.03c.03-.22.9-7.1-5.36-7.1ZM156.74,213.59c-.22,0-.4-.2-.35-.42.06-.3.17-.6.33-.88.23-.41.56-.75.98-1,.43-.26.96-.39,1.6-.39.59,0,1.1.12,1.52.35.42.24.74.56.97.97.23.41.34.87.34,1.37h-5.39Z"/>
    <g>
      <path class="cls-1" d="M142.64,220.12c.78.55,1.8.82,3.05.82.46,0,.92-.05,1.38-.15.46-.1.91-.28,1.33-.54.16-.1.31-.21.45-.34.23-.21.59-.04.59.27v.16c0,.16,0,.31-.02.46h2.79c.03-.34.04-.69.04-1.05v-11h-2.58l-.09.62c-.04.28-.37.4-.59.22-.32-.27-.69-.48-1.1-.65-.63-.25-1.31-.38-2.02-.38-1.23,0-2.26.28-3.07.85-.82.56-1.43,1.32-1.83,2.27-.4.95-.61,2.01-.61,3.17s.18,2.13.55,3.05c.37.92.94,1.66,1.73,2.21ZM146.29,211.09c2.82,0,3.2,2.65,3.2,3.63,0,.67-.25,3.75-3.22,3.75-2.82,0-3.13-2.95-3.13-3.66,0-2.73,1.77-3.73,3.15-3.73Z"/>
      <path class="cls-1" d="M149.1,222.24c-.19.45-.47.81-.86,1.08-.43.3-1.03.46-1.77.46-.4,0-.78-.05-1.15-.15-.37-.1-.7-.26-.97-.49-.27-.23-.46-.53-.55-.89h-2.86c.18.94.54,1.72,1.06,2.32.53.6,1.17,1.04,1.94,1.33.77.28,1.6.42,2.48.42,1.4,0,2.53-.26,3.38-.79.85-.53,1.47-1.28,1.86-2.26.13-.32.23-.66.32-1.02h-2.88Z"/>
    </g>
    <g>
      <path class="cls-1" d="M195.1,222.24c-.19.45-.47.81-.86,1.08-.43.3-1.03.46-1.77.46-.4,0-.78-.05-1.15-.15-.37-.1-.7-.26-.97-.49-.27-.23-.46-.53-.55-.89h-2.86c.18.94.54,1.72,1.06,2.32.53.6,1.17,1.04,1.94,1.33.77.28,1.6.42,2.48.42,1.4,0,2.53-.26,3.38-.79.85-.53,1.47-1.28,1.86-2.26.13-.32.23-.66.32-1.02h-2.88Z"/>
      <path class="cls-1" d="M188.64,220.12c.78.55,1.8.82,3.05.82.46,0,.92-.05,1.38-.15.46-.1.91-.28,1.33-.54.16-.1.31-.21.45-.34.23-.21.59-.04.59.27v.16c0,.16,0,.31-.02.46h2.79c.03-.34.04-.69.04-1.05v-11h-2.58l-.09.62c-.04.28-.37.4-.59.22-.32-.27-.69-.48-1.1-.65-.63-.25-1.31-.38-2.02-.38-1.23,0-2.26.28-3.07.85-.82.56-1.43,1.32-1.83,2.27-.4.95-.61,2.01-.61,3.17s.18,2.13.55,3.05c.37.92.94,1.66,1.73,2.21ZM192.29,211.09c2.82,0,3.2,2.65,3.2,3.63,0,.67-.25,3.75-3.22,3.75s-3.13-2.95-3.13-3.66c0-.64.08-3.73,3.15-3.73Z"/>
    </g>
    <path class="cls-1" d="M171.63,208.4c-4.33,0-5.68,3.79-5.69,6.18v6.23h2.83v-4.77c0-.2.16-.35.35-.35h5.05c.2,0,.35.16.35.35v4.77h2.78v-6.23c-.01-2.38-1.35-6.17-5.68-6.17ZM174.53,213.57h-5.4c-.24,0-.4-.19-.35-.42.06-.3.17-.6.33-.88.23-.41.56-.75.98-1.01.43-.26.96-.39,1.6-.39.59,0,1.1.12,1.52.35.42.24.74.56.97.97.23.41.34.87.34,1.37Z"/>
    <path class="cls-1" d="M181.57,209v-.24s-2.79,0-2.79,0v12.05h2.79v-5.72c0-.82.14-1.52.41-2.08.27-.56.69-1,1.23-1.3,1.06-.59,2.74-.18,2.74-.18v-2.77c-.39.09-2.74-.27-3.83.54-.23.17-.56,0-.55-.29Z"/>
  </g>
  <path class="cls-1" d="M150.07,73.69c-37.3,0-48.98,31.2-49.08,51.77v68.87h24.42v-13.22c0-1.68,1.36-3.05,3.05-3.05h43.56c1.68,0,3.05,1.36,3.05,3.05v13.22h23.94v-68.93c-.1-20.51-11.64-51.71-48.94-51.71ZM125.49,113.13c.55-2.63,1.5-5.17,2.86-7.61,1.97-3.55,4.8-6.44,8.48-8.67,3.68-2.23,8.28-3.35,13.8-3.35,5.13,0,9.49,1.02,13.11,3.06,3.61,2.04,6.41,4.83,8.38,8.38,1.97,3.55,2.95,7.49,2.95,11.83h-46.53c-2.03,0-3.45-1.64-3.04-3.63ZM128.53,159.83c-2.03,0-3.45-1.64-3.04-3.63.55-2.63,1.5-5.17,2.86-7.61,1.97-3.55,4.8-6.44,8.48-8.67,3.68-2.23,8.28-3.35,13.8-3.35,5.13,0,9.49,1.02,13.11,3.06,3.61,2.04,6.41,4.83,8.38,8.38,1.97,3.55,2.95,7.49,2.95,11.83h-46.53Z"/>
</svg>