<?xml version="1.0" encoding="UTF-8"?>
<svg id="Capa_1" data-name="Capa 1" xmlns="http://www.w3.org/2000/svg" viewBox="0 0 300 300">
  <defs>
    <style>
      .cls-1 {
        fill: #1e1517;
      }
    </style>
  </defs>
  <path class="cls-1" d="M150.07,91.84c-35.96,0-47.22,30.08-47.32,49.91v66.4h23.54v-12.75c0-1.62,1.31-2.94,2.94-2.94h42c1.62,0,2.94,1.31,2.94,2.94v12.75h23.08v-66.46c-.1-19.77-11.22-49.85-47.18-49.85ZM126.37,129.87c.53-2.54,1.45-4.98,2.75-7.33,1.9-3.42,4.62-6.21,8.17-8.36,3.55-2.15,7.98-3.23,13.3-3.23,4.94,0,9.15.98,12.64,2.95,3.48,1.97,6.18,4.66,8.08,8.08,1.9,3.42,2.85,7.22,2.85,11.4h-44.86c-1.95,0-3.33-1.59-2.93-3.5ZM129.3,174.89c-1.95,0-3.33-1.59-2.93-3.5.53-2.54,1.45-4.98,2.75-7.33,1.9-3.42,4.62-6.21,8.17-8.36,3.55-2.15,7.98-3.23,13.3-3.23,4.94,0,9.15.98,12.64,2.95,3.48,1.97,6.18,4.66,8.08,8.08,1.9,3.42,2.85,7.22,2.85,11.4h-44.86Z"/>
</svg>